<?xml version="1.0" encoding="UTF-8" standalone="no"?>
<!-- Created with Inkscape (http://www.inkscape.org/) -->

<svg
   xmlns:dc="http://purl.org/dc/elements/1.1/"
   xmlns:cc="http://creativecommons.org/ns#"
   xmlns:rdf="http://www.w3.org/1999/02/22-rdf-syntax-ns#"
   xmlns:svg="http://www.w3.org/2000/svg"
   xmlns="http://www.w3.org/2000/svg"
   xmlns:xlink="http://www.w3.org/1999/xlink"
   xmlns:sodipodi="http://sodipodi.sourceforge.net/DTD/sodipodi-0.dtd"
   xmlns:inkscape="http://www.inkscape.org/namespaces/inkscape"
   width="132.29167mm"
   height="17.75448mm"
   viewBox="0 0 132.29167 17.75448"
   version="1.1"
   id="svg79"
   inkscape:version="0.92.3 (2405546, 2018-03-11)"
   sodipodi:docname="banner.svg">
  <defs
     id="defs73">
    <linearGradient
       inkscape:collect="always"
       id="linearGradient6110">
      <stop
         style="stop-color:#ff0000;stop-opacity:1;"
         offset="0"
         id="stop6106" />
      <stop
         style="stop-color:#ff0000;stop-opacity:0;"
         offset="1"
         id="stop6108" />
    </linearGradient>
    <linearGradient
       inkscape:collect="always"
       xlink:href="#linearGradient6110"
       id="linearGradient6114"
       x1="51.612942"
       y1="90.687752"
       x2="127.31375"
       y2="90.687752"
       gradientUnits="userSpaceOnUse" />
    <linearGradient
       inkscape:collect="always"
       xlink:href="#linearGradient6110"
       id="linearGradient6116"
       gradientUnits="userSpaceOnUse"
       x1="51.612942"
       y1="90.687752"
       x2="127.31375"
       y2="90.687752" />
    <linearGradient
       inkscape:collect="always"
       xlink:href="#linearGradient6110"
       id="linearGradient6118"
       gradientUnits="userSpaceOnUse"
       x1="51.612942"
       y1="90.687752"
       x2="127.31375"
       y2="90.687752" />
    <linearGradient
       inkscape:collect="always"
       xlink:href="#linearGradient6110"
       id="linearGradient6120"
       gradientUnits="userSpaceOnUse"
       x1="51.612942"
       y1="90.687752"
       x2="127.31375"
       y2="90.687752" />
    <linearGradient
       inkscape:collect="always"
       xlink:href="#linearGradient6110"
       id="linearGradient6122"
       gradientUnits="userSpaceOnUse"
       x1="51.612942"
       y1="90.687752"
       x2="127.31375"
       y2="90.687752" />
    <linearGradient
       inkscape:collect="always"
       xlink:href="#linearGradient6110"
       id="linearGradient6124"
       gradientUnits="userSpaceOnUse"
       x1="51.612942"
       y1="90.687752"
       x2="127.31375"
       y2="90.687752" />
    <linearGradient
       inkscape:collect="always"
       xlink:href="#linearGradient6110"
       id="linearGradient6126"
       gradientUnits="userSpaceOnUse"
       x1="51.612942"
       y1="90.687752"
       x2="127.31375"
       y2="90.687752" />
    <linearGradient
       inkscape:collect="always"
       xlink:href="#linearGradient6110"
       id="linearGradient6128"
       gradientUnits="userSpaceOnUse"
       x1="51.612942"
       y1="90.687752"
       x2="127.31375"
       y2="90.687752" />
    <linearGradient
       inkscape:collect="always"
       xlink:href="#linearGradient6110"
       id="linearGradient6130"
       gradientUnits="userSpaceOnUse"
       x1="51.612942"
       y1="90.687752"
       x2="127.31375"
       y2="90.687752" />
    <linearGradient
       inkscape:collect="always"
       xlink:href="#linearGradient6110"
       id="linearGradient6132"
       gradientUnits="userSpaceOnUse"
       x1="51.612942"
       y1="90.687752"
       x2="127.31375"
       y2="90.687752" />
    <linearGradient
       inkscape:collect="always"
       xlink:href="#linearGradient6110"
       id="linearGradient6134"
       gradientUnits="userSpaceOnUse"
       x1="51.612942"
       y1="90.687752"
       x2="127.31375"
       y2="90.687752" />
    <linearGradient
       inkscape:collect="always"
       xlink:href="#linearGradient6110"
       id="linearGradient6136"
       gradientUnits="userSpaceOnUse"
       x1="51.612942"
       y1="90.687752"
       x2="127.31375"
       y2="90.687752" />
    <linearGradient
       inkscape:collect="always"
       xlink:href="#linearGradient6110"
       id="linearGradient6138"
       gradientUnits="userSpaceOnUse"
       x1="51.612942"
       y1="90.687752"
       x2="127.31375"
       y2="90.687752" />
  </defs>
  <sodipodi:namedview
     id="base"
     pagecolor="#ffffff"
     bordercolor="#666666"
     borderopacity="1.0"
     inkscape:pageopacity="0.0"
     inkscape:pageshadow="2"
     inkscape:zoom="5.0888935"
     inkscape:cx="80.966"
     inkscape:cy="-2.0234789"
     inkscape:document-units="mm"
     inkscape:current-layer="layer1"
     showgrid="false"
     fit-margin-top="0"
     fit-margin-left="0"
     fit-margin-right="-1.1"
     fit-margin-bottom="0"
     inkscape:window-width="1920"
     inkscape:window-height="1016"
     inkscape:window-x="0"
     inkscape:window-y="27"
     inkscape:window-maximized="1" />
  <metadata
     id="metadata76">
    <rdf:RDF>
      <cc:Work
         rdf:about="">
        <dc:format>image/svg+xml</dc:format>
        <dc:type
           rdf:resource="http://purl.org/dc/dcmitype/StillImage" />
        <dc:title></dc:title>
      </cc:Work>
    </rdf:RDF>
  </metadata>
  <g
     inkscape:label="Layer 1"
     inkscape:groupmode="layer"
     id="layer1"
     transform="translate(-52.236849,-72.397892)">
    <g
       aria-label="Jobs Database"
       style="font-style:normal;font-weight:normal;font-size:10.58333302px;line-height:1.25;font-family:sans-serif;letter-spacing:0px;word-spacing:0px;fill:url(#linearGradient6114);fill-opacity:1;stroke:none;stroke-width:0.26458332"
       id="text83"
       transform="matrix(1.7475595,0,0,1.7475595,-37.95984,-77.20711)">
      <path
         d="m 53.199409,85.93352 h 1.043864 v 7.177856 q 0,1.395264 -0.532267,2.025717 -0.527099,0.630452 -1.700154,0.630452 h -0.397909 v -0.878499 h 0.325562 q 0.692464,0 0.976684,-0.387574 0.28422,-0.387573 0.28422,-1.390096 z"
         style="fill:url(#linearGradient6116);fill-opacity:1;stroke-width:0.26458332"
         id="path85"
         inkscape:connector-curvature="0" />
      <path
         d="m 58.522082,88.527677 q -0.764811,0 -1.209229,0.599447 -0.444417,0.594279 -0.444417,1.632975 0,1.038696 0.43925,1.638143 0.444417,0.594279 1.214396,0.594279 0.759643,0 1.204061,-0.599447 0.444417,-0.599447 0.444417,-1.632975 0,-1.028361 -0.444417,-1.627808 -0.444418,-0.604614 -1.204061,-0.604614 z m 0,-0.806152 q 1.240234,0 1.948201,0.806152 0.707967,0.806152 0.707967,2.232422 0,1.421102 -0.707967,2.232422 -0.707967,0.806152 -1.948201,0.806152 -1.245402,0 -1.953369,-0.806152 -0.7028,-0.81132 -0.7028,-2.232422 0,-1.42627 0.7028,-2.232422 0.707967,-0.806152 1.953369,-0.806152 z"
         style="fill:url(#linearGradient6118);fill-opacity:1;stroke-width:0.26458332"
         id="path87"
         inkscape:connector-curvature="0" />
      <path
         d="m 66.903999,90.760099 q 0,-1.049032 -0.434082,-1.643311 -0.428915,-0.599446 -1.18339,-0.599446 -0.754476,0 -1.188558,0.599446 -0.428915,0.594279 -0.428915,1.643311 0,1.049031 0.428915,1.648478 0.434082,0.594279 1.188558,0.594279 0.754475,0 1.18339,-0.594279 0.434082,-0.599447 0.434082,-1.648478 z M 63.669054,88.73955 q 0.299724,-0.516764 0.754476,-0.764811 0.45992,-0.253214 1.095541,-0.253214 1.054199,0 1.710489,0.837158 0.661459,0.837158 0.661459,2.201416 0,1.364258 -0.661459,2.201416 -0.65629,0.837158 -1.710489,0.837158 -0.635621,0 -1.095541,-0.248047 -0.454752,-0.253214 -0.754476,-0.769979 v 0.868164 H 62.71304 v -8.040852 h 0.956014 z"
         style="fill:url(#linearGradient6120);fill-opacity:1;stroke-width:0.26458332"
         id="path89"
         inkscape:connector-curvature="0" />
      <path
         d="m 73.156847,88.031583 v 0.89917 q -0.403076,-0.206706 -0.837158,-0.310058 -0.434082,-0.103353 -0.89917,-0.103353 -0.707967,0 -1.064534,0.217041 -0.3514,0.217041 -0.3514,0.651123 0,0.330729 0.253215,0.521932 0.253214,0.186035 1.018025,0.356567 l 0.325562,0.07235 q 1.012858,0.217041 1.436605,0.61495 0.428914,0.392741 0.428914,1.100708 0,0.806152 -0.640788,1.276407 -0.63562,0.470256 -1.751831,0.470256 -0.465088,0 -0.971517,-0.09302 -0.501261,-0.08785 -1.059366,-0.268717 v -0.981852 q 0.527099,0.273885 1.038696,0.413411 0.511597,0.134359 1.012858,0.134359 0.671794,0 1.033529,-0.227376 0.361735,-0.232544 0.361735,-0.651123 0,-0.387574 -0.26355,-0.594279 -0.258382,-0.206706 -1.142049,-0.397909 l -0.33073,-0.07751 q -0.883666,-0.186036 -1.276407,-0.568441 -0.392741,-0.387573 -0.392741,-1.059367 0,-0.816488 0.578776,-1.260905 0.578776,-0.444417 1.64331,-0.444417 0.5271,0 0.992188,0.07751 0.465088,0.07752 0.857828,0.232544 z"
         style="fill:url(#linearGradient6122);fill-opacity:1;stroke-width:0.26458332"
         id="path91"
         inkscape:connector-curvature="0" />
      <path
         d="m 79.440701,86.791349 v 5.999634 h 1.260905 q 1.596802,0 2.335775,-0.72347 0.74414,-0.72347 0.74414,-2.284099 0,-1.550293 -0.74414,-2.268595 -0.738973,-0.72347 -2.335775,-0.72347 z M 78.396837,85.93352 h 2.144572 q 2.242757,0 3.291789,0.935344 1.049031,0.930175 1.049031,2.91455 0,1.994711 -1.054199,2.930054 -1.054199,0.935343 -3.286621,0.935343 h -2.144572 z"
         style="fill:url(#linearGradient6124);fill-opacity:1;stroke-width:0.26458332"
         id="path93"
         inkscape:connector-curvature="0" />
      <path
         d="m 89.130031,90.739428 q -1.152384,0 -1.596801,0.26355 -0.444418,0.26355 -0.444418,0.89917 0,0.506429 0.33073,0.806152 0.335896,0.294556 0.909505,0.294556 0.790649,0 1.266072,-0.558105 0.480591,-0.563274 0.480591,-1.493449 v -0.211874 z m 1.896525,-0.392741 v 3.302124 H 90.07571 v -0.878499 q -0.325561,0.5271 -0.81132,0.780314 -0.485758,0.248047 -1.188558,0.248047 -0.888834,0 -1.415934,-0.496094 -0.521932,-0.501261 -0.521932,-1.338419 0,-0.976685 0.651123,-1.472779 0.656291,-0.496093 1.953369,-0.496093 h 1.333252 v -0.09302 q 0,-0.656291 -0.434082,-1.012858 -0.428914,-0.361735 -1.209228,-0.361735 -0.496094,0 -0.96635,0.118856 -0.470255,0.118856 -0.904337,0.356567 v -0.878499 q 0.521932,-0.201538 1.012858,-0.299723 0.490926,-0.103353 0.956014,-0.103353 1.255737,0 1.875854,0.651123 0.620117,0.651123 0.620117,1.974039 z"
         style="fill:url(#linearGradient6126);fill-opacity:1;stroke-width:0.26458332"
         id="path95"
         inkscape:connector-curvature="0" />
      <path
         d="m 93.930771,86.217741 v 1.64331 h 1.958537 v 0.738973 h -1.958537 v 3.141927 q 0,0.707967 0.191203,0.909505 0.19637,0.201538 0.790649,0.201538 h 0.976685 v 0.795817 h -0.976685 q -1.100708,0 -1.519287,-0.408243 -0.418579,-0.413412 -0.418579,-1.498617 v -3.141927 h -0.697632 v -0.738973 h 0.697632 v -1.64331 z"
         style="fill:url(#linearGradient6128);fill-opacity:1;stroke-width:0.26458332"
         id="path97"
         inkscape:connector-curvature="0" />
      <path
         d="m 99.775375,90.739428 q -1.152384,0 -1.596801,0.26355 -0.444418,0.26355 -0.444418,0.89917 0,0.506429 0.330729,0.806152 0.335897,0.294556 0.909506,0.294556 0.790649,0 1.266069,-0.558105 0.48059,-0.563274 0.48059,-1.493449 v -0.211874 z m 1.896525,-0.392741 v 3.302124 h -0.95085 v -0.878499 q -0.32556,0.5271 -0.811316,0.780314 -0.485758,0.248047 -1.188558,0.248047 -0.888835,0 -1.415934,-0.496094 -0.521932,-0.501261 -0.521932,-1.338419 0,-0.976685 0.651123,-1.472779 0.656291,-0.496093 1.953369,-0.496093 h 1.333248 v -0.09302 q 0,-0.656291 -0.43408,-1.012858 -0.428912,-0.361735 -1.209227,-0.361735 -0.496093,0 -0.966349,0.118856 -0.470255,0.118856 -0.904337,0.356567 v -0.878499 q 0.521932,-0.201538 1.012858,-0.299723 0.490926,-0.103353 0.956014,-0.103353 1.255741,0 1.875851,0.651123 0.62012,0.651123 0.62012,1.974039 z"
         style="fill:url(#linearGradient6130);fill-opacity:1;stroke-width:0.26458332"
         id="path99"
         inkscape:connector-curvature="0" />
      <path
         d="m 107.79039,90.760099 q 0,-1.049032 -0.43408,-1.643311 -0.42891,-0.599446 -1.18339,-0.599446 -0.75448,0 -1.18856,0.599446 -0.42891,0.594279 -0.42891,1.643311 0,1.049031 0.42891,1.648478 0.43408,0.594279 1.18856,0.594279 0.75448,0 1.18339,-0.594279 0.43408,-0.599447 0.43408,-1.648478 z m -3.23494,-2.020549 q 0.29972,-0.516764 0.75447,-0.764811 0.45992,-0.253214 1.09554,-0.253214 1.0542,0 1.71049,0.837158 0.66146,0.837158 0.66146,2.201416 0,1.364258 -0.66146,2.201416 -0.65629,0.837158 -1.71049,0.837158 -0.63562,0 -1.09554,-0.248047 -0.45475,-0.253214 -0.75447,-0.769979 v 0.868164 h -0.95602 v -8.040852 h 0.95602 z"
         style="fill:url(#linearGradient6132);fill-opacity:1;stroke-width:0.26458332"
         id="path101"
         inkscape:connector-curvature="0" />
      <path
         d="m 112.98387,90.739428 q -1.15238,0 -1.5968,0.26355 -0.44442,0.26355 -0.44442,0.89917 0,0.506429 0.33073,0.806152 0.3359,0.294556 0.90951,0.294556 0.79065,0 1.26607,-0.558105 0.48059,-0.563274 0.48059,-1.493449 v -0.211874 z m 1.89653,-0.392741 v 3.302124 h -0.95085 v -0.878499 q -0.32556,0.5271 -0.81132,0.780314 -0.48576,0.248047 -1.18856,0.248047 -0.88883,0 -1.41593,-0.496094 -0.52193,-0.501261 -0.52193,-1.338419 0,-0.976685 0.65112,-1.472779 0.65629,-0.496093 1.95337,-0.496093 h 1.33325 v -0.09302 q 0,-0.656291 -0.43408,-1.012858 -0.42892,-0.361735 -1.20923,-0.361735 -0.49609,0 -0.96635,0.118856 -0.47026,0.118856 -0.90434,0.356567 v -0.878499 q 0.52193,-0.201538 1.01286,-0.299723 0.49093,-0.103353 0.95601,-0.103353 1.25574,0 1.87586,0.651123 0.62012,0.651123 0.62012,1.974039 z"
         style="fill:url(#linearGradient6134);fill-opacity:1;stroke-width:0.26458332"
         id="path103"
         inkscape:connector-curvature="0" />
      <path
         d="m 120.5338,88.031583 v 0.89917 q -0.40308,-0.206706 -0.83716,-0.310058 -0.43408,-0.103353 -0.89917,-0.103353 -0.70797,0 -1.06454,0.217041 -0.3514,0.217041 -0.3514,0.651123 0,0.330729 0.25322,0.521932 0.25321,0.186035 1.01802,0.356567 l 0.32557,0.07235 q 1.01285,0.217041 1.4366,0.61495 0.42892,0.392741 0.42892,1.100708 0,0.806152 -0.64079,1.276407 -0.63562,0.470256 -1.75183,0.470256 -0.46509,0 -0.97152,-0.09302 -0.50126,-0.08785 -1.05937,-0.268717 v -0.981852 q 0.5271,0.273885 1.0387,0.413411 0.5116,0.134359 1.01286,0.134359 0.67179,0 1.03353,-0.227376 0.36173,-0.232544 0.36173,-0.651123 0,-0.387574 -0.26355,-0.594279 -0.25838,-0.206706 -1.14205,-0.397909 l -0.33073,-0.07751 q -0.88366,-0.186036 -1.27641,-0.568441 -0.39274,-0.387573 -0.39274,-1.059367 0,-0.816488 0.57878,-1.260905 0.57878,-0.444417 1.64331,-0.444417 0.5271,0 0.99219,0.07751 0.46509,0.07752 0.85783,0.232544 z"
         style="fill:url(#linearGradient6136);fill-opacity:1;stroke-width:0.26458332"
         id="path105"
         inkscape:connector-curvature="0" />
      <path
         d="m 127.31375,90.51722 v 0.465088 h -4.37183 q 0.062,0.981852 0.58911,1.498616 0.53227,0.511597 1.47795,0.511597 0.54777,0 1.05937,-0.134359 0.51676,-0.134359 1.02319,-0.403076 v 0.89917 q -0.5116,0.217041 -1.04903,0.330729 -0.53744,0.113688 -1.09037,0.113688 -1.38493,0 -2.19625,-0.806152 -0.80616,-0.806153 -0.80616,-2.180746 0,-1.421102 0.76482,-2.253092 0.76997,-0.837158 2.07222,-0.837158 1.16789,0 1.84485,0.754476 0.68213,0.749308 0.68213,2.041219 z m -0.95085,-0.279053 q -0.0103,-0.780314 -0.43925,-1.245402 -0.42374,-0.465088 -1.12654,-0.465088 -0.79582,0 -1.27641,0.449585 -0.47542,0.449585 -0.54777,1.266073 z"
         style="fill:url(#linearGradient6138);fill-opacity:1;stroke-width:0.26458332"
         id="path107"
         inkscape:connector-curvature="0" />
    </g>
  </g>
</svg>
